# xmcd
#
# Track frame offsets:
#	175
#	5665
#	12090
#	26585
#	33735
#	38795
#	43370
#	62223
#	72170
#	77448
#	82148
#	89150
#	96080
#	100163
#	107635
#	116050
#	124840
#	127380
#	132650
#	136965
#	143973
#	150943
#	163780
#	175633
#
# Disc length: 2442 seconds
#
# Revision: 1
# Processed by: cddbd v1.5.2PL0 Copyright (c) Steve Scherf et al.
# Submitted via: audiograbber 1.83.01
#
DISCID=57098818
DTITLE=Rallye Meerdael - Le Chant des Sonneur
DYEAR=1995
DGENRE=Industrial
TTITLE0=Le Chant des Sonneurs  ( F.Vannerom )
TTITLE1=Souvenirs de Dieufit ( M.Halbout )
TTITLE2=Rendez-vous à Xatermael-Boitsfort ( H. Heinrich )
TTITLE3=Kyrié (Tyndare)
TTITLE4=Les Souvenir de Duclair (Folklore)
TTITLE5=La Fontaine au Violettes (J. Servier)
TTITLE6=Les Rendez-vous d'Octobre (S. Oudot)
TTITLE7=Souvenir de Chantraine (P. Luykx)
TTITLE8=La Courcier (F. Courcier)
TTITLE9=La Chirac (Duchemin)
TTITLE10=Adieux au Château de la Forêt (G. Rochard)
TTITLE11=La Marche des Boers (H. Laporte)
TTITLE12=Rallye La Haut (M. Martin)
TTITLE13=La Grand-Logis (R. Lamouche)
TTITLE14=La Dauboeuf (E. Caneaux)
TTITLE15=La d'Aubigny (H.Joliot)
TTITLE16=La Louve ( Mis de Courtivron)
TTITLE17=O Salutaris Hostia (Traditionel)
TTITLE18=La Roland Matter (H. Heindrich)
TTITLE19=Argelouse... toujours (G. Chalmel)
TTITLE20=Les Echos de Boitsfort (F. Vannerum)
TTITLE21=Kyrié (G. Rochard)
TTITLE22=La Frans Donders (P. Luyks)
TTITLE23=Sous Bois (Tyndare)
EXTD=
EXTT0=
EXTT1=
EXTT2=
EXTT3=
EXTT4=
EXTT5=
EXTT6=
EXTT7=
EXTT8=
EXTT9=
EXTT10=
EXTT11=
EXTT12=
EXTT13=
EXTT14=
EXTT15=
EXTT16=
EXTT17=
EXTT18=
EXTT19=
EXTT20=
EXTT21=
EXTT22=
EXTT23=
PLAYORDER=
